# xmcd CD database file
#
# Track frame offsets:
#	150
#	12908
#	36017
#	43599
#	73013
#	102294
#	118716
#	122021
#	139725
#	155144
#	174150
#
# Disc length: 2556 seconds
#
# Revision: 0
# Processed by: cddbd v1.5.2PL0 Copyright (c) Steve Scherf et al.
# Submitted via: CDex 1.70beta2
#
DISCID=9009fa0b
DTITLE=Various Artist - Jazz Canto
DYEAR=1900
DGENRE=Jazz
TTITLE0=John Carradine w. the Jazz Canto Ensemble - Poets To Come
TTITLE1=Hoagy Carmicheal w. the Ralph Penna Qunintet - Tract
TTITLE2=Ben Wright w. the Jazz Canto Ensemble - In My Craft or Sullen Art
TTITLE3=John Carradine w. the Chico Hamilton Quintet - Night Song For The Sleepless
TTITLE4=Ben Wright w. the Jazz Canto Ensemble - Lament
TTITLE5=Bob Dorough w. the Bob Dorough Quintet - Dog
TTITLE6=Hoagy Carmicheal w. Bob Hardaway - Young Sycamore
TTITLE7=Bob Dorough w. the Bob Dorough Quintet - Daybreak In Alabama
TTITLE8=Bob Dorough w. the Bob Dorough Quintet - Night and Morn
TTITLE9=Bob Dorough w. the Bob Dorough Quintet - The Dreamkeeper
TTITLE10=Roy Glenn - Big High Song For Somebody
EXTD=
EXTT0=
EXTT1=
EXTT2=
EXTT3=
EXTT4=
EXTT5=
EXTT6=
EXTT7=
EXTT8=
EXTT9=
EXTT10=
PLAYORDER=
